<?xml version="1.0" encoding="UTF-8" standalone="no"?>
<svg xmlns:ffdec="https://www.free-decompiler.com/flash" xmlns:xlink="http://www.w3.org/1999/xlink" ffdec:objectType="shape" height="10.0px" width="10.0px" xmlns="http://www.w3.org/2000/svg">
  <g transform="matrix(1.0, 0.0, 0.0, 1.0, 0.0, 0.0)">
    <path d="M8.0 0.0 L8.0 1.0 7.0 1.0 7.0 0.0 8.0 0.0 M3.0 1.0 L2.0 1.0 2.0 0.0 3.0 0.0 3.0 1.0 M1.0 2.0 L1.0 3.0 0.0 3.0 0.0 2.0 1.0 2.0 M1.0 7.0 L1.0 8.0 0.0 8.0 0.0 7.0 1.0 7.0 M2.0 10.0 L2.0 9.0 3.0 9.0 3.0 10.0 2.0 10.0 M7.0 9.0 L8.0 9.0 8.0 10.0 7.0 10.0 7.0 9.0 M9.0 8.0 L9.0 7.0 10.0 7.0 10.0 8.0 9.0 8.0 M9.0 3.0 L9.0 2.0 10.0 2.0 10.0 3.0 9.0 3.0" fill="#424242" fill-opacity="0.3647059" fill-rule="evenodd" stroke="none"/>
    <path d="M7.0 0.0 L7.0 1.0 6.0 1.0 6.0 0.0 7.0 0.0 M4.0 0.0 L4.0 1.0 3.0 1.0 3.0 0.0 4.0 0.0 M1.0 3.0 L1.0 4.0 0.0 4.0 0.0 3.0 1.0 3.0 M0.0 6.0 L1.0 6.0 1.0 7.0 0.0 7.0 0.0 6.0 M3.0 9.0 L4.0 9.0 4.0 10.0 3.0 10.0 3.0 9.0 M6.0 10.0 L6.0 9.0 7.0 9.0 7.0 10.0 6.0 10.0 M9.0 7.0 L9.0 6.0 10.0 6.0 10.0 7.0 9.0 7.0 M10.0 4.0 L9.0 4.0 9.0 3.0 10.0 3.0 10.0 4.0" fill="#7a7a7a" fill-opacity="0.6745098" fill-rule="evenodd" stroke="none"/>
    <path d="M6.0 3.0 L6.0 4.0 7.0 4.0 7.0 5.0 6.0 5.0 6.0 6.0 5.0 6.0 5.0 7.0 4.0 7.0 4.0 6.0 3.0 6.0 3.0 5.0 4.0 5.0 4.0 4.0 5.0 4.0 5.0 3.0 6.0 3.0 M6.0 4.0 L5.0 4.0 5.0 5.0 4.0 5.0 4.0 6.0 5.0 6.0 5.0 5.0 6.0 5.0 6.0 4.0" fill="#5f5f5f" fill-opacity="0.5254902" fill-rule="evenodd" stroke="none"/>
    <path d="M2.0 1.0 L2.0 2.0 1.0 2.0 1.0 1.0 2.0 1.0 M8.0 9.0 L8.0 8.0 9.0 8.0 9.0 9.0 8.0 9.0" fill="#5c5c5c" fill-opacity="0.5058824" fill-rule="evenodd" stroke="none"/>
    <path d="M7.0 1.0 L8.0 1.0 8.0 0.0 10.0 0.0 10.0 2.0 9.0 2.0 9.0 3.0 9.0 4.0 10.0 4.0 10.0 6.0 9.0 6.0 9.0 7.0 9.0 8.0 8.0 8.0 8.0 9.0 7.0 9.0 6.0 9.0 6.0 10.0 4.0 10.0 4.0 9.0 3.0 9.0 2.0 9.0 2.0 10.0 0.0 10.0 0.0 8.0 1.0 8.0 1.0 7.0 1.0 6.0 0.0 6.0 0.0 4.0 1.0 4.0 1.0 3.0 1.0 2.0 2.0 2.0 2.0 1.0 3.0 1.0 4.0 1.0 4.0 0.0 6.0 0.0 6.0 1.0 7.0 1.0 M6.0 3.0 L6.0 2.0 4.0 2.0 4.0 4.0 2.0 4.0 2.0 6.0 3.0 6.0 4.0 6.0 4.0 7.0 4.0 8.0 6.0 8.0 6.0 6.0 8.0 6.0 8.0 4.0 7.0 4.0 6.0 4.0 6.0 3.0 M6.0 4.0 L6.0 5.0 5.0 5.0 5.0 6.0 4.0 6.0 4.0 5.0 5.0 5.0 5.0 4.0 6.0 4.0" fill="#666666" fill-rule="evenodd" stroke="none"/>
  </g>
</svg>
